PathFileType	4	(x/y/z)	S01_P20_T21
DataRate	CameraRate	NumFrames	NumMarkers	Units	OrigDataRate	OrigDataStartFrame	OrigNumFrames
240	240	4	51	mm	240	239	381
Frame#	Time	Sternum			R.Acromium			L.Acromium			Top.Head			R.ASIS			L.ASIS			R.PSIS			L.PSIS			R.Great.Tro			L.Great.Tro			R.Iliac.Crest			L.Iliac.Crest			V.Sacral			R.Thigh.Upper.Post			R.Thigh.Lower.Ant			R.Thigh.Lower.Post			R.Thigh.Upper.Ant			R.Knee.Lat			R.Knee.Med			R.Shank.Upper.Post			R.Shank.Lower.Ant			R.Shank.Lower.Post			R.Shank.Upper.Ant			R.Ankle.Lat			R.Ankle.Med			R.Heel.Upper			R.Heel.Med			R.Heel.Lat			R.Toe.Lat			R.Toe.Med			R.Toe.Tip			L.Thigh.Upper.Post			L.Thigh.Lower.Ant			L.Thigh.Lower.Post			L.Thigh.Upper.Ant			L.Knee.Lat			L.Knee.Med			L.Shank.Upper.Post			L.Shank.Lower.Ant			L.Shank.Lower.Post			L.Shank.Upper.Ant			L.Ankle.Lat			L.Ankle.Med			L.Heel.Upper			L.Heel.Med			L.Heel.Lat			L.Toe.Lat			L.Toe.Med			L.Toe.Tip			Cervical.Spine			Back			
		X1	Y1	Z1	X2	Y2	Z2	X3	Y3	Z3	X4	Y4	Z4	X5	Y5	Z5	X6	Y6	Z6	X7	Y7	Z7	X8	Y8	Z8	X9	Y9	Z9	X10	Y10	Z10	X11	Y11	Z11	X12	Y12	Z12	X13	Y13	Z13	X14	Y14	Z14	X15	Y15	Z15	X16	Y16	Z16	X17	Y17	Z17	X18	Y18	Z18	X19	Y19	Z19	X20	Y20	Z20	X21	Y21	Z21	X22	Y22	Z22	X23	Y23	Z23	X24	Y24	Z24	X25	Y25	Z25	X26	Y26	Z26	X27	Y27	Z27	X28	Y28	Z28	X29	Y29	Z29	X30	Y30	Z30	X31	Y31	Z31	X32	Y32	Z32	X33	Y33	Z33	X34	Y34	Z34	X35	Y35	Z35	X36	Y36	Z36	X37	Y37	Z37	X38	Y38	Z38	X39	Y39	Z39	X40	Y40	Z40	X41	Y41	Z41	X42	Y42	Z42	X43	Y43	Z43	X44	Y44	Z44	X45	Y45	Z45	X46	Y46	Z46	X47	Y47	Z47	X48	Y48	Z48	X49	Y49	Z49	X50	Y50	Z50	X51	Y51	Z51	

239	0.99167	56.717	1249.1	257.89	-52.04	1498.4	443.61	-110.38	1509.6	115.86	-101.21	1825.8	281.34	11.597	989.7	425.51	18.98	1000	159.26	-224.22	1033.4	320.53	-222.45	1028.9	217.79	-77.688	939.28	499.58	-71.74	949.12	72.027	-77.671	1089.3	485.8	-93.395	1076.1	79.304	-234.84	993.42	266.93	-143.44	646.59	483.29	-85.152	563.32	468.92	-153.95	558.44	470.58	-70.41	652.55	482.1	-154.06	488.26	470.16	-134.22	480.91	326.85	-290.17	387.26	484.03	-285.1	282.71	448.67	-333.09	331.69	472.69	-244.9	342.27	466.2	-451.07	162.14	437.69	-413.49	151.53	347.84	-523.95	161.66	374.16	-519.73	129.62	345.04	-529.92	130.13	408.99	-374.1	40.909	483.58	-331.23	42.138	361.21	-271.51	43.485	421.81	5.4441	670.91	94.753	111.21	637.93	95.671	48.868	591.98	112.42	58.846	715.78	76.142	131.87	536.72	104.93	143.41	544.29	245.66	111.79	397.1	78.141	184.35	317.05	104.79	125.08	320.27	78.582	172.72	393.1	100.64	143.33	105.66	101.93	162.74	116.65	201.08	74.498	67.645	144.13	84.991	43.707	178.91	87.322	41.661	116.85	293.95	52.637	89.848	314.84	64.992	212.73	375.96	85.059	162.59	-172.11	1557.6	294.38	-241.32	1244.9	315.51
240	0.99583	63.003	1249	256.83	-46.546	1498.5	442.29	-104.3	1509	114.26	-95.18	1825.6	279.48	18.148	989.68	424.53	25.455	999.84	158.33	-217.72	1032.8	319.87	-216	1028.5	217.09	-70.697	938.94	498.86	-65.36	948.75	71.315	-70.969	1089.4	484.76	-86.866	1075.7	78.338	-228.29	992.88	266.23	-134.77	645.87	483.59	-75.829	562.96	469.96	-144.59	557.59	471.29	-61.775	652.35	482.6	-144.38	487.6	471.27	-123.91	479.64	328.1	-281.91	388.79	484.67	-278.5	284.17	449.61	-325.69	333.97	473.34	-237.36	343.04	467.18	-446.27	166.41	438.23	-408.6	155.01	348.52	-518.57	168.22	374.34	-515.19	136.33	344.98	-525.66	136.69	408.88	-373.38	42.291	483.52	-330.63	42.738	361.35	-271.13	43.04	421.92	11.706	670.43	94.685	117.44	637.34	95.385	55.081	591.52	112.45	65.083	715.24	75.895	138.31	536.29	105.02	149.9	544.32	245.63	117.28	397	78.144	188.78	316.11	105.13	129.67	320.02	78.618	178.04	392.29	100.96	144.56	105.4	102.11	164.1	116.02	201.25	75.177	68.305	144.18	85.247	44.157	178.93	87.606	42.153	116.89	294.58	50.54	89.931	315.68	62.322	212.85	377.18	81.467	162.76	-166.3	1557.3	292.6	-235.24	1244.4	314.07
241	1	69.264	1249	255.76	-41.041	1498.6	440.97	-98.218	1508.6	112.67	-89.169	1825.5	277.6	24.672	989.73	423.52	31.869	999.72	157.36	-211.25	1032.4	319.28	-209.6	1028.1	216.45	-63.702	938.67	498.15	-59.092	948.46	70.621	-64.221	1089.6	483.72	-80.426	1075.4	77.412	-221.78	992.44	265.59	-125.94	645.18	483.95	-66.31	562.67	471.06	-135.03	556.76	472.05	-52.994	652.22	483.17	-134.43	486.99	472.4	-113.28	478.41	329.38	-273.33	390.39	485.33	-271.58	285.73	450.56	-317.95	336.35	473.99	-229.5	343.88	468.2	-441.1	170.87	438.76	-403.35	158.61	349.19	-512.72	175.02	374.48	-510.22	143.29	344.89	-520.97	143.54	408.74	-372.51	43.896	483.43	-329.88	43.475	361.49	-270.66	42.583	422.06	17.888	670.02	94.594	123.57	636.79	95.086	61.196	591.11	112.46	71.254	714.76	75.635	144.62	535.89	105.11	156.3	544.37	245.6	122.57	396.93	78.151	193.03	315.21	105.44	134.07	319.82	78.654	183.17	391.51	101.23	145.66	105.2	102.29	165.33	115.47	201.43	75.789	68.925	144.24	85.476	44.581	178.96	87.86	42.633	116.93	295.15	48.688	90.004	316.42	59.896	212.96	378.26	78.195	162.94	-160.49	1557.1	290.83	-229.18	1244.1	312.67
242	1.0042	75.495	1249	254.67	-35.526	1498.8	439.64	-92.132	1508.2	111.11	-83.181	1825.4	275.72	31.162	989.85	422.49	38.221	999.67	156.36	-204.81	1032	318.74	-203.26	1027.9	215.88	-56.714	938.46	497.44	-52.932	948.25	69.948	-57.442	1089.9	482.68	-74.077	1075.2	76.532	-215.32	992.09	265.01	-116.96	644.51	484.35	-56.607	562.44	472.2	-125.28	555.96	472.85	-44.077	652.15	483.79	-124.23	486.44	473.56	-102.35	477.23	330.7	-264.41	392.07	486	-264.34	287.38	451.51	-309.88	338.82	474.63	-221.33	344.8	469.23	-435.55	175.49	439.26	-397.76	162.32	349.84	-506.37	182.02	374.58	-504.8	150.48	344.75	-515.85	150.67	408.56	-371.47	45.742	483.31	-328.94	44.365	361.63	-270.1	42.12	422.22	23.981	669.68	94.478	129.62	636.28	94.776	67.199	590.77	112.45	77.353	714.34	75.366	150.76	535.51	105.17	162.6	544.41	245.54	127.65	396.87	78.163	197.09	314.35	105.71	138.26	319.63	78.691	188.1	390.76	101.46	146.64	105.05	102.49	166.43	114.98	201.61	76.335	69.497	144.3	85.683	44.974	178.99	88.088	43.091	116.96	295.65	47.074	90.064	317.06	57.716	213.07	379.22	75.248	163.1	-154.68	1557	289.08	-223.13	1243.8	311.29
